Coordinates
version=1
nRows=17
nColumns=40
inDegrees=yes

Units are S.I. units (second, meters, Newtons, ...)
Angles are in degrees.

endheader
time	pelvis_tilt	pelvis_list	pelvis_rotation	pelvis_tx	pelvis_ty	pelvis_tz	hip_flexion_r	hip_adduction_r	hip_rotation_r	knee_angle_r	knee_angle_r_beta	ankle_angle_r	subtalar_angle_r	mtp_angle_r	hip_flexion_l	hip_adduction_l	hip_rotation_l	knee_angle_l	knee_angle_l_beta	ankle_angle_l	subtalar_angle_l	mtp_angle_l	lumbar_extension	lumbar_bending	lumbar_rotation	arm_flex_r	arm_add_r	arm_rot_r	elbow_flex_r	pro_sup_r	wrist_flex_r	wrist_dev_r	arm_flex_l	arm_add_l	arm_rot_l	elbow_flex_l	pro_sup_l	wrist_flex_l	wrist_dev_l
      3.04000000	     -1.98455091	     -5.30700442	      7.24703648	      1.08999167	      0.92778240	      0.50717834	      1.50077428	      4.72415398	    -15.87229994	     13.13169266	     13.13169266	     16.03402487	      6.13645390	     -3.83351998	     26.39724091	     -8.98780594	     -2.31511925	     21.24381317	     21.24381317	      1.54652466	    -10.33811465	      3.50798774	    -10.53348600	      6.34162922	      3.16199905	     30.05443878	    -14.82025046	      3.88961482	     66.97388928	     44.82161353	      0.00000000	      0.00000000	     -5.00983404	     -7.31490144	    -14.27022094	     27.89584626	     47.31274660	      0.00000000	      0.00000000
      3.05385714	     -1.85238482	     -5.31892129	      6.96284937	      1.09161568	      0.92724929	      0.50598263	      0.94481939	      4.66197892	    -15.61655326	     13.34430498	     13.34430498	     16.46760125	      6.29166576	     -3.84896971	     25.64768553	     -9.00892965	     -2.30409513	     21.69313902	     21.69313902	      1.98220946	    -10.88188301	      3.33779032	    -10.39013245	      6.24652361	      3.17747369	     29.35653005	    -14.60276727	      4.07127551	     66.60368395	     44.82750278	      0.00000000	      0.00000000	     -5.01303539	     -7.39007280	    -14.24262455	     28.02063127	     47.30252436	      0.00000000	      0.00000000
      3.06771429	     -1.82850526	     -5.34934828	      6.71489483	      1.09295446	      0.92678003	      0.50461001	      0.52921211	      4.59125191	    -15.34960799	     13.53364098	     13.53364098	     16.77965499	      6.41233004	     -3.91958589	     25.02849062	     -9.00307662	     -2.19465806	     21.97177165	     21.97177165	      2.52298587	    -11.23495986	      3.13699802	    -10.19819238	      6.24113667	      3.06344270	     28.65657507	    -14.47654453	      4.18872999	     66.30448128	     44.83128850	      0.00000000	      0.00000000	     -4.94246732	     -7.44241433	    -14.23146552	     28.10981445	     47.29983316	      0.00000000	      0.00000000
      3.08157143	     -1.69900760	     -5.20123898	      6.52353380	      1.09407466	      0.92668670	      0.50296395	      0.22343474	      4.19771814	    -15.45668755	     14.26692758	     14.26692758	     17.64986087	      6.97186806	     -2.55720432	     24.39173542	     -8.71276668	     -1.73367562	     22.29862053	     22.29862053	      2.77295343	    -12.36044512	      3.00766245	    -10.11850160	      5.94678296	      2.99688870	     28.16694084	    -14.28787791	      4.34383056	     64.39590455	     44.92235485	      0.00000000	      0.00000000	     -5.14386298	     -7.67108885	    -13.51410629	     29.23283182	     47.11510855	      0.00000000	      0.00000000
      3.09542857	     -1.63112724	     -5.15703802	      6.40351106	      1.09499989	      0.92671810	      0.50120387	     -0.16007370	      4.01060148	    -15.27748034	     14.56092566	     14.56092566	     17.79242603	      6.96385924	     -2.61751639	     23.92007679	     -8.60064225	     -1.56356458	     22.61550506	     22.61550506	      3.34414947	    -12.58771603	      2.75218490	    -10.06802792	      5.83117311	      2.76531794	     27.17334671	    -14.24401806	      4.46082086	     63.98805743	     44.92873014	      0.00000000	      0.00000000	     -4.93040567	     -7.72989128	    -13.49244432	     29.36709464	     47.11255858	      0.00000000	      0.00000000
      3.10928571	     -1.68574988	     -4.99954200	      6.25634671	      1.09551517	      0.92673775	      0.49919576	     -0.15279888	      3.57384210	    -15.17780486	     15.34740095	     15.34740095	     18.02132091	      6.93582573	     -2.70989479	     23.63845696	     -8.32846523	     -1.39668613	     22.95592857	     22.95592857	      3.88539876	    -13.02914553	      2.59911440	     -9.97980929	      5.55555312	      3.01259780	     26.06767586	    -14.69274826	      4.40692305	     62.94144073	     44.96836592	      0.00000000	      0.00000000	     -4.41258667	     -7.81704162	    -13.35879936	     29.87660383	     47.08644024	      0.00000000	      0.00000000
      3.12314286	     -1.66240823	     -4.90476802	      6.21227653	      1.09592343	      0.92710659	      0.49698355	     -0.37371065	      3.26293292	    -15.10749372	     15.79941924	     15.79941924	     18.04667534	      6.90901059	     -2.76210411	     23.32027247	     -8.11351651	     -1.21543866	     23.25667574	     23.25667574	      4.43422856	    -13.28263416	      2.39414893	    -10.02454020	      5.39169286	      2.69521584	     24.96396513	    -14.77501994	      4.43654532	     62.33889939	     44.98476149	      0.00000000	      0.00000000	     -4.04774063	     -7.90708632	    -13.31258322	     30.12756226	     47.08118981	      0.00000000	      0.00000000
      3.13700000	     -1.79918661	     -4.70758978	      6.12118056	      1.09596638	      0.92729854	      0.49449646	     -0.09588794	      2.67581602	    -15.15311267	     16.88980145	     16.88980145	     18.21226321	      6.93112897	     -2.99711719	     23.17962027	     -7.74635638	     -1.11284405	     23.54957824	     23.54957824	      4.95650247	    -13.69215193	      2.38961015	     -9.95202880	      5.09242418	      2.95778853	     23.69433370	    -15.34950314	      4.22569626	     60.98642366	     45.03862659	      0.00000000	      0.00000000	     -3.39254166	     -7.92763204	    -13.17820649	     30.81948608	     47.05987082	      0.00000000	      0.00000000
      3.15085714	     -1.88610159	     -4.58144231	      6.07837616	      1.09593705	      0.92772426	      0.49185652	      0.04216062	      2.19020558	    -15.24248935	     17.76686322	     17.76686322	     18.20868313	      7.01098362	     -3.15899356	     22.97646150	     -7.45010394	     -0.97892276	     23.77001153	     23.77001153	      5.47229949	    -13.94952598	      2.45595041	     -9.93577738	      4.91270377	      2.85536162	     22.46094729	    -15.65569038	      3.95578882	     59.78004231	     45.08963424	      0.00000000	      0.00000000	     -2.89249807	     -7.93449296	    -12.99753318	     31.44936814	     47.02967199	      0.00000000	      0.00000000
      3.16471429	     -1.95289953	     -4.45541100	      6.05322567	      1.09585043	      0.92819457	      0.48907975	      0.22342632	      1.68151368	    -15.31537094	     18.76519571	     18.76519571	     18.22803705	      7.04713792	     -3.39753576	     22.74744484	     -7.15701514	     -0.96602464	     23.97973954	     23.97973954	      5.97317835	    -14.13154182	      2.52338224	     -9.98625480	      4.73711645	      2.78824752	     21.10816802	    -16.04098395	      3.68072308	     58.44466585	     45.14411050	      0.00000000	      0.00000000	     -2.32666378	     -7.96927346	    -12.82958444	     32.19595419	     47.00466917	      0.00000000	      0.00000000
      3.17857143	     -2.08133525	     -4.35001981	      5.98600385	      1.09566631	      0.92859391	      0.48617549	      0.56195985	      1.13202893	    -15.43437904	     19.91204018	     19.91204018	     18.18683009	      7.14847693	     -3.72168288	     22.53150025	     -6.87524100	     -0.98454538	     24.11100700	     24.11100700	      6.51383450	    -14.25809573	      2.71570591	     -9.95834230	      4.60130941	      2.83825876	     19.79191890	    -16.44634474	      3.19419978	     56.76047722	     45.22049652	      0.00000000	      0.00000000	     -1.81057695	     -7.95858457	    -12.53964380	     33.24258131	     46.95947661	      0.00000000	      0.00000000
      3.19242857	     -2.16243198	     -4.26865129	      5.90805688	      1.09550042	      0.92907672	      0.48321190	      0.89079464	      0.60164139	    -15.47776179	     21.11938493	     21.11938493	     18.08595505	      7.21079011	     -4.11520221	     22.24045059	     -6.63503167	     -1.08388887	     24.20626540	     24.20626540	      6.97593872	    -14.30413697	      2.90023387	    -10.00750515	      4.51632852	      2.80375839	     18.45095727	    -16.83081143	      2.68433634	     54.99153061	     45.30052157	      0.00000000	      0.00000000	     -1.33169964	     -7.94565120	    -12.19797157	     34.40888824	     46.91000573	      0.00000000	      0.00000000
      3.20628571	     -2.19792396	     -4.22488270	      5.86025905	      1.09538766	      0.92961888	      0.48019234	      1.17833218	      0.09798771	    -15.58157781	     22.30896423	     22.30896423	     17.73599263	      7.30768584	     -5.08442226	     21.89899445	     -6.41590721	     -1.13281853	     24.32114366	     24.32114366	      7.68206764	    -14.28604111	      3.66907745	    -10.10106012	      4.43201968	      2.36822038	     17.77862770	    -16.40301759	      0.82481776	     51.58099060	     45.50307876	      0.00000000	      0.00000000	     -1.68468880	     -8.30555513	    -10.55008837	     37.13919785	     46.66317524	      0.00000000	      0.00000000
      3.22014286	     -2.23727508	     -4.18405686	      5.74194929	      1.09532035	      0.93009685	      0.47715475	      1.66179436	     -0.44101235	    -15.45809459	     23.85480911	     23.85480911	     17.54762204	      7.16432672	     -5.61026427	     21.47585910	     -6.23800086	     -1.33805434	     24.29226625	     24.29226625	      8.03150453	    -14.23977945	      3.58477226	    -10.18722084	      4.39886186	      2.46494341	     16.17674230	    -17.05587077	      0.70142887	     50.14871731	     45.55183714	      0.00000000	      0.00000000	     -0.99291807	     -8.26166242	    -10.36205394	     38.08641068	     46.64821015	      0.00000000	      0.00000000
      3.23400000	     -2.26538180	     -4.17317666	      5.62376340	      1.09528002	      0.93058682	      0.47403314	      2.21471028	     -0.99330961	    -15.35178011	     25.52493333	     25.52493333	     17.21233948	      7.09905788	     -6.41831754	     21.02359247	     -6.07112080	     -1.49049112	     24.23250013	     24.23250013	      8.32147108	    -14.25023292	      3.56909178	    -10.25831942	      4.42654895	      2.57648312	     14.60996871	    -17.63481568	      0.35113163	     48.29868416	     45.62631993	      0.00000000	      0.00000000	     -0.40252576	     -8.23141034	    -10.05774153	     39.44786898	     46.62162696	      0.00000000	      0.00000000
      3.24785714	     -2.04666796	     -4.45011215	      5.65023497	      1.09552288	      0.93152890	      0.47085500	      2.39060755	     -1.14635674	    -15.30262044	     26.91898035	     26.91898035	     16.71781503	      7.00869376	     -6.78078813	     20.31672309	     -6.19199877	     -1.39746731	     24.11676358	     24.11676358	      8.66638384	    -14.23751846	      3.51528157	    -10.56408059	      4.84510680	      1.92283059	     13.17846514	    -17.89320635	      0.23526717	     47.31655194	     45.65937469	      0.00000000	      0.00000000	      0.00772640	     -8.29849867	     -9.97966749	     40.01822962	     46.61997433	      0.00000000	      0.00000000
      3.26171429	     -2.19898730	     -4.23886982	      5.40288882	      1.09537596	      0.93175841	      0.46775062	      3.38918991	     -2.02360920	    -14.96094923	     28.95695373	     28.95695373	     14.69770527	      6.30528876	    -12.16105466	     19.90692341	     -5.78495860	     -1.59644950	     23.96683167	     23.96683167	      8.97451318	    -14.45194155	      3.84566282	    -10.51012380	      4.49754526	      1.88795561	     13.11944248	    -17.36865624	     -2.95644399	     41.18643920	     46.03194778	      0.00000000	      0.00000000	     -1.02941593	     -9.11090987	     -7.15032808	     45.79598306	     46.33967974	      0.00000000	      0.00000000
